<?xml version="1.0" encoding="UTF-8"?>
<svg xmlns="http://www.w3.org/2000/svg" xmlns:xlink="http://www.w3.org/1999/xlink" viewBox="0 0 48 48" width="64px" height="64px">
<g id="surface21992358">
<path style=" stroke:none;fill-rule:nonzero;fill:rgb(0.784314%,46.666667%,74.117649%);fill-opacity:1;" d="M 44.230469 1.390625 L 3.769531 1.390625 L 7.339844 41.851562 L 24 46.609375 L 40.660156 41.851562 Z M 44.230469 1.390625 "/>
<path style=" stroke:none;fill-rule:nonzero;fill:rgb(1.176471%,60.784316%,89.803922%);fill-opacity:1;" d="M 24 4.960938 L 24 42.921875 L 37.328125 39.113281 L 40.304688 4.960938 Z M 24 4.960938 "/>
<path style=" stroke:none;fill-rule:nonzero;fill:rgb(100%,100%,100%);fill-opacity:1;" d="M 34.828125 10.910156 L 24 10.910156 L 24 15.671875 L 29.832031 15.671875 L 29.472656 20.429688 L 24 20.429688 L 24 25.191406 L 29.234375 25.191406 L 28.878906 30.546875 L 24 32.210938 L 24 37.210938 L 33.402344 34.113281 L 34.234375 20.429688 Z M 34.828125 10.910156 "/>
<path style=" stroke:none;fill-rule:nonzero;fill:rgb(93.333334%,93.333334%,93.333334%);fill-opacity:1;" d="M 24 10.910156 L 24 15.671875 L 13.410156 15.671875 L 13.050781 10.910156 Z M 18.527344 20.429688 L 18.765625 25.191406 L 24 25.191406 L 24 20.429688 Z M 19.003906 27.570312 L 14.242188 27.570312 L 14.597656 34.113281 L 24 37.210938 L 24 32.210938 L 19.121094 30.546875 Z M 19.003906 27.570312 "/>
</g>
</svg>
