<?xml version="1.0" encoding="UTF-8"?>
<svg xmlns="http://www.w3.org/2000/svg" xmlns:xlink="http://www.w3.org/1999/xlink" viewBox="0 0 48 48" width="64px" height="64px">
<g id="surface21991816">
<path style=" stroke:none;fill-rule:nonzero;fill:rgb(100%,83.92157%,0%);fill-opacity:1;" d="M 2.578125 45.421875 L 2.578125 2.578125 L 45.421875 2.578125 L 45.421875 45.421875 Z M 2.578125 45.421875 "/>
<path style=" stroke:none;fill-rule:nonzero;fill:rgb(0%,0%,0.392157%);fill-opacity:1;" d="M 30.589844 34.648438 C 31.414062 35.984375 32.308594 37.265625 34.203125 37.265625 C 35.796875 37.265625 36.632812 36.476562 36.632812 35.378906 C 36.632812 34.070312 35.769531 33.605469 34.015625 32.839844 L 33.054688 32.433594 C 30.285156 31.257812 28.441406 29.785156 28.441406 26.671875 C 28.441406 23.804688 30.636719 21.621094 34.066406 21.621094 C 36.511719 21.621094 38.265625 22.46875 39.53125 24.683594 L 36.539062 26.59375 C 35.882812 25.417969 35.171875 24.957031 34.066406 24.957031 C 32.941406 24.957031 32.230469 25.667969 32.230469 26.59375 C 32.230469 27.742188 32.941406 28.207031 34.589844 28.917969 L 35.550781 29.328125 C 38.816406 30.71875 40.660156 32.136719 40.660156 35.332031 C 40.660156 38.773438 37.941406 40.660156 34.292969 40.660156 C 30.726562 40.660156 28.699219 38.867188 27.570312 36.652344 Z M 16.804688 34.746094 C 17.40625 35.824219 18.320312 36.652344 19.636719 36.652344 C 20.894531 36.652344 21.621094 36.15625 21.621094 34.222656 L 21.621094 21.621094 L 25.585938 21.621094 L 25.585938 34.832031 C 25.585938 38.835938 23.261719 40.660156 19.867188 40.660156 C 16.800781 40.660156 14.589844 38.582031 13.6875 36.652344 Z M 16.804688 34.746094 "/>
</g>
</svg>
