<?xml version="1.0" encoding="UTF-8"?>
<svg xmlns="http://www.w3.org/2000/svg" xmlns:xlink="http://www.w3.org/1999/xlink" viewBox="0 0 48 48" width="64px" height="64px">
<g id="surface23920483">
<path style=" stroke:none;fill-rule:nonzero;fill:rgb(36.470589%,25.098041%,21.568628%);fill-opacity:1;" d="M 45.421875 16.027344 C 45.421875 40.421875 24 47.800781 24 47.800781 C 24 47.800781 2.578125 40.421875 2.578125 16.027344 C 2.578125 13.050781 2.816406 10.554688 3.054688 8.53125 C 3.414062 5.554688 5.4375 3.175781 8.292969 2.460938 C 11.980469 1.390625 17.8125 0.199219 24 0.199219 C 30.1875 0.199219 36.019531 1.390625 39.828125 2.460938 C 42.683594 3.175781 44.707031 5.675781 45.0625 8.53125 C 45.183594 10.554688 45.421875 13.171875 45.421875 16.027344 Z M 45.421875 16.027344 "/>
<path style=" stroke:none;fill-rule:nonzero;fill:rgb(29.803923%,68.627453%,31.37255%);fill-opacity:1;" d="M 24 3.769531 C 29.832031 3.769531 35.304688 4.960938 38.875 5.910156 C 40.304688 6.269531 41.253906 7.460938 41.492188 9.007812 C 41.730469 11.265625 41.851562 13.648438 41.851562 16.027344 C 41.851562 34.589844 28.164062 42.089844 24 43.871094 C 19.835938 41.96875 6.148438 34.472656 6.148438 16.027344 C 6.148438 13.648438 6.269531 11.265625 6.507812 9.007812 C 6.625 7.460938 7.695312 6.269531 9.125 5.910156 C 12.695312 4.960938 18.167969 3.769531 24 3.769531 M 24 0.199219 C 17.8125 0.199219 11.980469 1.390625 8.171875 2.460938 C 5.4375 3.175781 3.292969 5.675781 3.054688 8.53125 C 2.816406 10.554688 2.578125 13.171875 2.578125 16.027344 C 2.578125 40.421875 24 47.800781 24 47.800781 C 24 47.800781 45.421875 40.421875 45.421875 16.027344 C 45.421875 13.050781 45.183594 10.554688 44.945312 8.53125 C 44.585938 5.554688 42.5625 3.175781 39.707031 2.460938 C 36.019531 1.390625 30.1875 0.199219 24 0.199219 Z M 24 0.199219 "/>
<path style=" stroke:none;fill-rule:nonzero;fill:rgb(86.274511%,92.941177%,78.431374%);fill-opacity:1;" d="M 22.808594 28.761719 L 25.191406 28.761719 L 25.191406 38.28125 L 22.808594 38.28125 Z M 22.808594 28.761719 "/>
<path style=" stroke:none;fill-rule:nonzero;fill:rgb(29.803923%,68.627453%,31.37255%);fill-opacity:1;" d="M 24 7.339844 C 24 7.339844 16.859375 13.289062 16.859375 22.808594 C 16.859375 28.996094 20.785156 32.925781 22.808594 34.710938 L 24 31.140625 L 25.191406 34.710938 C 27.214844 32.925781 31.140625 28.996094 31.140625 22.808594 C 31.140625 13.289062 24 7.339844 24 7.339844 Z M 24 7.339844 "/>
<path style=" stroke:none;fill-rule:nonzero;fill:rgb(50.588238%,78.039217%,51.764709%);fill-opacity:1;" d="M 24 7.339844 C 24 7.339844 16.859375 13.289062 16.859375 22.808594 C 16.859375 28.996094 20.785156 32.925781 22.808594 34.710938 L 24 31.140625 Z M 24 7.339844 "/>
</g>
</svg>
